<?xml version="1.0" encoding="UTF-8"?>
<svg xmlns="http://www.w3.org/2000/svg" xmlns:xlink="http://www.w3.org/1999/xlink" viewBox="0 0 480 480" width="480px" height="480px">
<g id="surface65525063">
<path style=" stroke:none;fill-rule:nonzero;fill:rgb(100%,100%,100%);fill-opacity:1;" d="M 96 64 C 78.320312 64 64 78.320312 64 96 L 64 384 C 64 401.679688 78.320312 416 96 416 L 384 416 C 401.679688 416 416 401.679688 416 384 L 416 96 C 416 78.320312 401.679688 64 384 64 Z M 280 176 L 320.90625 176 C 325.320312 176 328.90625 179.585938 328.90625 184 C 328.90625 188.417969 325.320312 192 320.90625 192 L 280 192 C 275.585938 192 272 188.417969 272 184 C 272 179.585938 275.585938 176 280 176 Z M 142.71875 182.15625 L 187.28125 182.15625 C 213.585938 182.15625 229.28125 195.023438 229.28125 215.96875 C 229.28125 230.335938 218.652344 242.875 204.75 244.9375 L 204.75 246.625 C 222.703125 247.9375 235.75 261.464844 235.75 278.9375 C 235.765625 302.699219 217.820312 317.75 188.875 317.75 L 142.71875 317.75 C 134.589844 317.75 128 311.160156 128 303.03125 L 128 196.875 C 128 188.746094 134.589844 182.15625 142.71875 182.15625 Z M 156.375 203.84375 L 156.375 238.34375 L 177.6875 238.34375 C 193.015625 238.359375 201.375 232.050781 201.375 221.15625 C 201.375 210.355469 193.597656 203.84375 180.0625 203.84375 Z M 303.40625 211.84375 C 333.949219 211.84375 351.96875 231.308594 351.96875 264.1875 L 351.96875 272.53125 L 280.875 272.53125 L 280.875 273.9375 C 281.242188 289.34375 290.273438 298.9375 304.5625 298.9375 C 315.363281 298.9375 322.777344 295.097656 325.6875 288.25 L 351.15625 288.25 C 347.027344 307.800781 329.15625 320 303.78125 320 C 272.214844 320 253.625 300.070312 253.625 266.4375 C 253.625 232.710938 272.589844 211.84375 303.40625 211.84375 Z M 303.53125 232.8125 C 290.84375 232.8125 281.898438 241.621094 280.96875 255.0625 L 325.125 255.0625 C 324.550781 241.351562 316.300781 232.8125 303.53125 232.8125 Z M 156.375 257.53125 L 156.375 296.0625 L 181.65625 296.0625 C 198.007812 296.0625 206.84375 289.171875 206.84375 276.5 C 206.84375 264.085938 197.71875 257.53125 181 257.53125 Z M 156.375 257.53125 "/>
</g>
</svg>
