<?xml version="1.0" encoding="UTF-8"?>
<svg xmlns="http://www.w3.org/2000/svg" xmlns:xlink="http://www.w3.org/1999/xlink" viewBox="0 0 480 480" width="480px" height="480px">
<g id="surface65505097">
<path style=" stroke:none;fill-rule:nonzero;fill:rgb(100%,100%,100%);fill-opacity:1;" d="M 384 64 L 96 64 C 78.320312 64 64 78.320312 64 96 L 64 384 C 64 401.679688 78.320312 416 96 416 L 384 416 C 401.679688 416 416 401.679688 416 384 L 416 96 C 416 78.320312 401.679688 64 384 64 Z M 175.265625 352 L 128.0625 352 L 128.0625 200.128906 L 175.265625 200.128906 Z M 151.183594 178.414062 C 135.96875 178.414062 123.664062 166.078125 123.664062 150.894531 C 123.664062 135.710938 135.984375 123.390625 151.183594 123.390625 C 166.351562 123.390625 178.6875 135.726562 178.6875 150.894531 C 178.6875 166.078125 166.351562 178.414062 151.183594 178.414062 Z M 352.0625 352 L 304.894531 352 L 304.894531 278.144531 C 304.894531 260.527344 304.574219 237.871094 280.367188 237.871094 C 255.808594 237.871094 252.03125 257.054688 252.03125 276.863281 L 252.03125 352 L 204.863281 352 L 204.863281 200.128906 L 250.144531 200.128906 L 250.144531 220.878906 L 250.785156 220.878906 C 257.089844 208.945312 272.480469 196.351562 295.441406 196.351562 C 343.230469 196.351562 352.0625 227.808594 352.0625 268.703125 Z M 352.0625 352 "/>
</g>
</svg>
