<svg xmlns="http://www.w3.org/2000/svg" viewBox="0 0 228 245"><g id="Layer_2" data-name="Layer 2"><g id="Layer_1-2" data-name="Layer 1"><path d="M207.71,122.56A72.33,72.33,0,0,0,161.65.24c-2-.16-4-.24-6-.24H122.33A122.11,122.11,0,0,0,31.17,40.83c-2.53,2.83-5,5.8-7.19,8.82A122.63,122.63,0,0,0,9.3,169.34a120,120,0,0,0,5.41,11.33,122.42,122.42,0,0,0,107.63,64.22h29.28c1.31.07,2.63.11,3.95.11a72.3,72.3,0,0,0,52.14-122.44ZM160.76,11a61.49,61.49,0,0,1,38.87,104.29,72,72,0,0,0-44.06-15,71.7,71.7,0,0,0-27.71,5.51v-95h27.82C157.38,10.83,159.09,10.9,160.76,11ZM24.22,175.51a112.17,112.17,0,0,1-4.92-10.32A111.84,111.84,0,0,1,32.68,56.09c2-2.76,4.25-5.46,6.56-8A111.78,111.78,0,0,1,117,11V111.47a72.35,72.35,0,0,0,.08,122.46A111.62,111.62,0,0,1,24.22,175.51Zm131.46,58.66v-.11H152a61.43,61.43,0,1,1,3.71.11Z"/></g></g></svg>